<?xml version="1.0" encoding="UTF-8"?>
<svg version="1.1" viewBox="0 0 2048 1187" width="207" height="120" xmlns="http://www.w3.org/2000/svg">
<path transform="translate(1283,45)" d="m0 0h4l-1 5-7 11-10 17-16 28-14 23-24 40-19 32-17 28-17 29-14 23-12 20-34 56-12 20-8 14 1 6 9 17 13 21 17 29 16 26 13 21 17 29 27 45 38 64 11 18 13 22 17 28 9 15 4 7v2l-8 1h-128l-16-2-16-5-9-6-6-5-9-11-14-21-17-28-15-26-17-29-13-21-19-32-34-56-14-24-9-15-14-24-17-29-7-10-2-2-4-1-131-1-1-276 2-17 5-15 6-10 9-11 10-8 14-7 10-3 9-1h87l2 313 5-5 6-9 15-26 14-23 15-25 13-21 17-28 10-17 36-60 13-22 17-28 11-17 10-13 9-8 14-7 16-4z" fill="#80D5E5"/>
<path transform="translate(843,421)" d="m0 0 4 2 5 11 10 27 22 55 15 36 30 76 6 20 1 15-3 15-7 17-7 11-9 10-9 8-14 8-14 6-13 3-9 1h-13l-15-2-15-4-16-8-9-7-12-12-8-13-7-16-3-13v-12l4-20 7-20 16-38 16-41 15-37 22-55 9-22z" fill="#80D5E5"/>
<path transform="translate(985,933)" d="m0 0 109 1 15 2 12 4 12 7 7 6 9 13 5 13 1 5v20l-4 11-6 9-5 6-5 4-1 4 10 9 8 7 7 8 6 12 2 7 1 14-2 13-5 12-8 11-8 9-11 7-14 5-11 2-12 1-43 1h-28l-42-1v-221zm54 42-4 1v40l1 6 2 1h45l11-4 5-5 3-8v-11l-4-10-4-6-7-3zm-3 86-1 4v39l1 9 5 1h29l23-1 11-4 7-8 3-6v-13l-6-12-7-6-5-2-35-1z" fill="#80D5E5"/>
<path transform="translate(207,933)" d="m0 0h15l-1 4-9 11-9 10-14 19-11 14-8 10-15 20-8 10v4l10 14 15 23 22 34 14 21 12 17 5 8v3l-3 1-57-1-4-5-9-15-14-22-13-21-12-21-5 3-10 13-12 17-7 9-1 3v39h-53v-220l1-1h51v109l10-10 13-18 14-18 13-17 10-13 9-11 8-10 8-11 2-1z" fill="#80D5E5"/>
<path transform="translate(1800,933)" d="m0 0h24l24 1 2 2v70l-1 38 8-7 7-8 13-17 11-14 28-38 12-14 8-11 4-2h57l-2 5-7 7-9 11-12 15-13 17-11 13-13 18-8 10-2 3 1 4 26 39 21 31 10 15 13 20 7 11v3l-36 1h-22l-6-7-13-21-13-20-9-15-11-18-2-4-7 6-14 19-12 17-3 9 1 31-1 1-41 2h-8l-2-2v-220z" fill="#80D5E5"/>
<path transform="translate(864,933)" d="m0 0h57l-4 7-11 11-22 28-12 16-10 13-12 16-7 8-1 3 4 2 20 30 22 34 15 23 13 19 6 8v3l-2 1h-55l-5-5-16-24-12-19-17-28-5-6-5 1-8 11-11 14-9 14-2 8v33l-20 1h-31l-1-1v-220h51l1 3v104l8-7 9-10 10-13 29-38 6-8 13-17 9-11z" fill="#80D5E5"/>
<path transform="translate(1599,927)" d="m0 0h18l18 3 18 5 19 9 13 9 10 9 9 9 9 14 9 17 3 10v2l-2 1-47 1-6-5-9-13-9-10-9-7-12-5-16-3h-19l-13 3-12 6-13 11-8 11-7 14-4 17v19l4 18 7 13 8 9v2l4 2 8 7 16 8 8 2 14 1 18-2 12-4 13-7 7-6 7-10 6-10 3-3h49l1 5-6 15-11 18-9 11-7 7-10 8-15 9-17 7-23 5-8 1h-21l-22-3-18-6-17-9-12-9-16-16-9-13-8-16-5-13-3-15v-31l3-14 7-19 9-16 7-9 11-12 13-10 17-10 15-6 22-5z" fill="#80D5E5"/>
<path transform="translate(525,927)" d="m0 0h11l21 3 19 5 12 5 11 6 14 10 15 15 10 15 9 19 1 9-4 1-44 1-5-5-9-12-9-10-9-7-12-6-15-3h-18l-17 4-12 6-11 9-10 14-5 10-4 12-2 15 1 15 3 12 9 17 9 10 9 8 14 7 12 3 17 1 15-2 16-6 11-8 5-5 8-9 5-10 2-2h14l33 1 1 5-3 10-8 16-8 11-9 10-12 10-13 8-14 7-13 4-14 3-8 1h-25l-19-3-21-7-13-7-12-9-12-11-11-13-9-16-7-16-4-16-1-7v-22l3-16 5-15 8-16 12-16 10-11 14-11 16-9 12-5 25-6z" fill="#80D5E5"/>
<path transform="translate(1353,932)" d="m0 0 4 1 6 12 10 26 14 34 11 28 17 42 8 19 11 26 12 28 1 6-28 1h-24l-4-5-15-38-21-53-19-49-1-2h-6l-3 10-13 34-34 85-8 17-2 1-52-1 2-6 8-15 10-24 14-36 11-27 20-50 16-39 9-20 4-4h34z" fill="#80D5E5"/>
<path transform="translate(288,934)" d="m0 0h49l1 1v219l-23 1h-22l-6-2-1-14v-53l1-148z" fill="#80D5E5"/>
</svg>
